# Blender v3.0.0 OBJ File: 'LowPoly_Final.blend'
# www.blender.org
mtllib LowPoly_Post.mtl
o Circle.001
v -0.091100 0.000000 -0.219936
v -0.219936 0.000000 -0.091100
v -0.219936 0.000000 0.091100
v -0.091100 0.000000 0.219936
v 0.091100 0.000000 0.219936
v 0.219936 0.000000 0.091100
v 0.219936 0.000000 -0.091100
v 0.091100 0.000000 -0.219936
v -0.091100 -3.922367 -0.219936
v -0.219936 -3.922367 -0.091100
v -0.219936 -3.922367 0.091100
v -0.091100 -3.922367 0.219936
v 0.091100 -3.922367 0.219936
v 0.219936 -3.922367 0.091100
v 0.219936 -3.922367 -0.091100
v 0.091100 -3.922367 -0.219936
vt 0.000009 -0.000149
vt 0.999997 0.000002
vt 0.999995 0.124987
vt 0.000006 0.124870
vt 0.000003 0.499929
vt 0.999992 0.499941
vt 0.999993 0.624926
vt 0.000003 0.624948
vt 0.999994 0.749911
vt 0.000003 0.749968
vt 0.999994 0.249972
vt 0.000005 0.249890
vt 0.999995 0.874896
vt 0.000005 0.874988
vt 0.999993 0.374956
vt 0.000003 0.374909
vt 0.999997 0.999881
vt 0.000006 1.000008
vn -0.9239 0.0000 -0.3827
vn -0.9239 0.0000 0.3827
vn 0.9239 0.0000 0.3827
vn 0.9239 0.0000 -0.3827
vn 0.3827 0.0000 -0.9239
vn -0.3827 0.0000 0.9239
vn -0.3827 0.0000 -0.9239
vn 0.3827 0.0000 0.9239
usemtl Material.022
s 1
f 2/1/1 10/2/1 11/3/2 3/4/2
f 6/5/3 14/6/3 15/7/4 7/8/4
f 7/8/4 15/7/4 16/9/5 8/10/5
f 3/4/2 11/3/2 12/11/6 4/12/6
f 8/10/5 16/9/5 9/13/7 1/14/7
f 4/12/6 12/11/6 13/15/8 5/16/8
f 1/14/7 9/13/7 10/17/1 2/18/1
f 5/16/8 13/15/8 14/6/3 6/5/3
