# Blender v3.0.0 OBJ File: 'Crate_LowPoly.blend'
# www.blender.org
mtllib Bottom_Trim-02.mtl
o Bottom_Trim-02
v -0.071183 -0.038827 0.678816
v -0.071183 -0.038827 -0.678816
v -0.071183 0.038827 0.678816
v 0.071183 -0.038827 0.678816
v 0.071183 -0.038827 -0.678816
v 0.071183 0.038827 0.678816
v 0.071183 0.038827 -0.678816
v -0.071183 0.038827 -0.678816
vt 0.046156 0.446085
vt 0.046156 0.275774
vt 0.065320 0.275774
vt 0.065320 0.446085
vt 0.075773 0.275774
vt 0.075773 0.446085
vt 0.046156 0.266032
vt 0.065320 0.266032
vt 0.035703 0.446085
vt 0.035703 0.275774
vt 0.016540 0.446085
vt 0.016540 0.275774
vt 0.065320 0.455827
vt 0.046156 0.455827
vn 0.5773 -0.5773 -0.5773
vn 0.5773 -0.5773 0.5773
vn -0.5773 -0.5773 0.5773
vn -0.5773 -0.5773 -0.5773
vn -0.5773 0.5773 0.5773
vn -0.5773 0.5773 -0.5773
vn 0.5773 0.5773 0.5773
vn 0.5773 0.5773 -0.5773
usemtl Material.001
s 1
f 5/1/1 4/2/2 1/3/3 2/4/4
f 2/4/4 1/3/3 3/5/5 8/6/6
f 1/3/3 4/2/2 6/7/7 3/8/5
f 7/9/8 6/10/7 4/2/2 5/1/1
f 8/11/6 3/12/5 6/10/7 7/9/8
f 5/1/1 2/4/4 8/13/6 7/14/8
