# Blender v3.0.0 OBJ File: 'Crate_LowPoly.blend'
# www.blender.org
mtllib Crate_Diagonal-04.mtl
o Crate_Diagonal-04
v -0.385116 0.568149 0.038827
v -0.385116 0.568149 -0.038827
v 0.568149 -0.385116 0.038827
v -0.568149 0.568149 0.038827
v -0.568149 0.385116 0.038827
v -0.568149 0.568149 -0.038827
v 0.568149 -0.568149 0.038827
v 0.385116 -0.568149 0.038827
v 0.568149 -0.568149 -0.038827
v 0.385116 -0.568149 -0.038827
v 0.568149 -0.385116 -0.038827
v -0.568149 0.385116 -0.038827
vt 0.156189 0.189257
vt 0.337658 0.189258
vt 0.337658 0.198999
vt 0.156189 0.198999
vt 0.148798 0.196146
vt 0.131376 0.179910
vt 0.138768 0.173021
vt 0.355079 0.173022
vt 0.131377 0.166133
vt 0.148798 0.149897
vt 0.156189 0.156786
vt 0.337658 0.156786
vt 0.362471 0.179910
vt 0.345049 0.196146
vt 0.345049 0.149897
vt 0.362471 0.166133
vt 0.138768 0.130808
vt 0.355079 0.130808
vt 0.337658 0.147044
vt 0.156189 0.147044
vt 0.355079 0.215235
vt 0.138768 0.215235
vn 0.2971 0.7173 0.6302
vn 0.7173 0.2971 0.6302
vn 0.7173 0.2971 -0.6302
vn 0.2971 0.7173 -0.6302
vn -0.5773 0.5773 -0.5773
vn -0.5773 0.5773 0.5773
vn 0.5773 -0.5773 0.5773
vn -0.7173 -0.2971 -0.6302
vn -0.7173 -0.2971 0.6302
vn -0.2971 -0.7173 0.6302
vn 0.5773 -0.5773 -0.5773
vn -0.2971 -0.7173 -0.6302
usemtl Material.001
s 1
f 1/1/1 3/2/2 11/3/3 2/4/4
f 2/5/4 6/6/5 4/7/6 1/1/1
f 4/7/6 7/8/7 3/2/2 1/1/1
f 6/9/5 12/10/8 5/11/9 4/7/6
f 5/11/9 8/12/10 7/8/7 4/7/6
f 9/13/11 11/14/3 3/2/2 7/8/7
f 10/15/12 9/16/11 7/8/7 8/12/10
f 6/17/5 9/18/11 10/19/12 12/20/8
f 2/4/4 11/3/3 9/21/11 6/22/5
f 12/20/8 10/19/12 8/12/10 5/11/9
