# Blender v3.0.0 OBJ File: 'Crate_LowPoly.blend'
# www.blender.org
mtllib Crate_Diagonal-06.mtl
o Crate_Diagonal-06
v -0.607633 -0.038827 -0.424599
v -0.607633 0.038827 -0.424599
v 0.424600 -0.038827 0.607632
v -0.607633 -0.038827 -0.607633
v -0.424600 -0.038827 -0.607633
v -0.607633 0.038827 -0.607633
v 0.607633 -0.038827 0.607632
v 0.607633 -0.038827 0.424600
v 0.607633 0.038827 0.607632
v 0.607633 0.038827 0.424600
v 0.424600 0.038827 0.607632
v -0.424600 0.038827 -0.607633
vt 0.579117 0.101099
vt 0.561695 0.084864
vt 0.569087 0.077975
vt 0.586508 0.094211
vt 0.783010 0.094211
vt 0.783010 0.103953
vt 0.586508 0.103953
vt 0.800431 0.077975
vt 0.586508 0.061739
vt 0.783010 0.061739
vt 0.561695 0.071087
vt 0.579117 0.054851
vt 0.807822 0.084864
vt 0.790401 0.101099
vt 0.790401 0.054851
vt 0.807822 0.071087
vt 0.569087 0.035762
vt 0.800431 0.035762
vt 0.783010 0.051998
vt 0.586508 0.051998
vt 0.800431 0.120189
vt 0.569087 0.120189
vn -0.7173 0.6302 0.2971
vn -0.5773 0.5773 -0.5773
vn -0.5773 -0.5773 -0.5773
vn -0.7173 -0.6302 0.2971
vn -0.2971 -0.6302 0.7173
vn -0.2971 0.6302 0.7173
vn 0.5773 -0.5773 0.5773
vn 0.2971 -0.6302 -0.7173
vn 0.7173 -0.6302 -0.2971
vn 0.2971 0.6302 -0.7173
vn 0.5773 0.5773 0.5773
vn 0.7173 0.6302 -0.2971
usemtl Material.001
s 1
f 2/1/1 6/2/2 4/3/3 1/4/4
f 1/4/4 3/5/5 11/6/6 2/7/1
f 4/3/3 7/8/7 3/5/5 1/4/4
f 5/9/8 8/10/9 7/8/7 4/3/3
f 6/11/2 12/12/10 5/9/8 4/3/3
f 9/13/11 11/14/6 3/5/5 7/8/7
f 10/15/12 9/16/11 7/8/7 8/10/9
f 6/17/2 9/18/11 10/19/12 12/20/10
f 2/7/1 11/6/6 9/21/11 6/22/2
f 12/20/10 10/19/12 8/10/9 5/9/8
