# Blender v3.0.0 OBJ File: 'Crate_LowPoly.blend'
# www.blender.org
mtllib Crate_Diagonal-01.mtl
o Crate_Diagonal-01
v 0.038827 -0.385116 0.568149
v -0.038827 -0.385116 0.568149
v 0.038827 0.568149 -0.385116
v 0.038827 -0.568149 0.568149
v 0.038827 -0.568149 0.385116
v -0.038827 -0.568149 0.568149
v 0.038827 0.568149 -0.568149
v 0.038827 0.385116 -0.568149
v -0.038827 0.568149 -0.568149
v -0.038827 0.385116 -0.568149
v -0.038827 0.568149 -0.385116
v -0.038827 -0.568149 0.385116
vt 0.208723 0.241410
vt 0.226144 0.225174
vt 0.233536 0.232062
vt 0.216114 0.248298
vt 0.216114 0.417417
vt 0.205661 0.417417
vt 0.205661 0.248298
vt 0.233535 0.433653
vt 0.250957 0.248298
vt 0.250957 0.417417
vt 0.240927 0.225174
vt 0.258348 0.241410
vt 0.226144 0.440541
vt 0.208722 0.424305
vt 0.258348 0.424305
vt 0.240927 0.440541
vt 0.278831 0.232062
vt 0.278831 0.433653
vt 0.261410 0.417417
vt 0.261410 0.248298
vt 0.188239 0.433653
vt 0.188239 0.232062
vn -0.6302 0.2971 0.7173
vn -0.5773 -0.5773 0.5773
vn 0.5773 -0.5773 0.5773
vn 0.6302 0.2971 0.7173
vn 0.6302 0.7173 0.2971
vn -0.6302 0.7173 0.2971
vn 0.5773 0.5773 -0.5773
vn 0.6302 -0.7173 -0.2971
vn 0.6302 -0.2971 -0.7173
vn -0.6302 -0.7173 -0.2971
vn -0.5773 0.5773 -0.5773
vn -0.6302 -0.2971 -0.7173
usemtl Material.001
s 1
f 2/1/1 6/2/2 4/3/3 1/4/4
f 1/4/4 3/5/5 11/6/6 2/7/1
f 4/3/3 7/8/7 3/5/5 1/4/4
f 5/9/8 8/10/9 7/8/7 4/3/3
f 6/11/2 12/12/10 5/9/8 4/3/3
f 9/13/11 11/14/6 3/5/5 7/8/7
f 10/15/12 9/16/11 7/8/7 8/10/9
f 6/17/2 9/18/11 10/19/12 12/20/10
f 2/7/1 11/6/6 9/21/11 6/22/2
f 12/20/10 10/19/12 8/10/9 5/9/8
