# Blender v3.0.0 OBJ File: 'Crate_LowPoly.blend'
# www.blender.org
mtllib Crate_Diagonal-05.mtl
o Crate_Diagonal-05
v -0.607633 0.038827 0.424600
v -0.607633 -0.038827 0.424600
v 0.424600 0.038827 -0.607633
v -0.607633 0.038827 0.607633
v -0.424600 0.038827 0.607633
v -0.607633 -0.038827 0.607633
v 0.607633 0.038827 -0.607633
v 0.607633 0.038827 -0.424600
v 0.607633 -0.038827 -0.607633
v 0.607633 -0.038827 -0.424600
v 0.424600 -0.038827 -0.607633
v -0.424600 -0.038827 0.607633
vt 0.119279 0.101607
vt 0.101857 0.085371
vt 0.109249 0.078483
vt 0.126670 0.094719
vt 0.323172 0.094719
vt 0.323172 0.104460
vt 0.126670 0.104461
vt 0.340593 0.078483
vt 0.126670 0.062247
vt 0.323171 0.062247
vt 0.101857 0.071595
vt 0.119279 0.055359
vt 0.347984 0.085371
vt 0.330563 0.101607
vt 0.330563 0.055358
vt 0.347984 0.071594
vt 0.109249 0.036269
vt 0.340593 0.036269
vt 0.323171 0.052505
vt 0.126670 0.052505
vt 0.340593 0.120696
vt 0.109249 0.120697
vn -0.7173 -0.6302 -0.2971
vn -0.5773 -0.5773 0.5773
vn -0.5773 0.5773 0.5773
vn -0.7173 0.6302 -0.2971
vn -0.2971 0.6302 -0.7173
vn -0.2971 -0.6302 -0.7173
vn 0.5773 0.5773 -0.5773
vn 0.2971 0.6302 0.7173
vn 0.7173 0.6302 0.2971
vn 0.2971 -0.6302 0.7173
vn 0.5773 -0.5773 -0.5773
vn 0.7173 -0.6302 0.2971
usemtl Material.001
s 1
f 2/1/1 6/2/2 4/3/3 1/4/4
f 1/4/4 3/5/5 11/6/6 2/7/1
f 4/3/3 7/8/7 3/5/5 1/4/4
f 5/9/8 8/10/9 7/8/7 4/3/3
f 6/11/2 12/12/10 5/9/8 4/3/3
f 9/13/11 11/14/6 3/5/5 7/8/7
f 10/15/12 9/16/11 7/8/7 8/10/9
f 6/17/2 9/18/11 10/19/12 12/20/10
f 2/7/1 11/6/6 9/21/11 6/22/2
f 12/20/10 10/19/12 8/10/9 5/9/8
