# Blender v3.0.0 OBJ File: 'Crate_LowPoly.blend'
# www.blender.org
mtllib Side_Trim-16.mtl
o Side_Trim-16
v -0.639332 0.071840 -0.038827
v 0.639332 0.070526 -0.038827
v -0.639332 0.071840 0.038827
v -0.639332 -0.070526 -0.038827
v 0.639332 -0.071840 -0.038827
v -0.639332 -0.070526 0.038827
v 0.639332 -0.071840 0.038827
v 0.639332 0.070526 0.038827
vt 0.583547 0.800807
vt 0.583547 0.640401
vt 0.602711 0.640383
vt 0.602710 0.800789
vt 0.613164 0.640383
vt 0.613164 0.800789
vt 0.583536 0.630660
vt 0.602700 0.630641
vt 0.573094 0.800807
vt 0.573094 0.640401
vt 0.632327 0.640401
vt 0.632327 0.800807
vt 0.602721 0.810530
vt 0.583558 0.810549
vn 0.5771 -0.5777 -0.5773
vn -0.5776 -0.5770 -0.5774
vn -0.5771 0.5777 -0.5773
vn 0.5776 0.5770 -0.5774
vn -0.5771 0.5777 0.5773
vn 0.5776 0.5770 0.5774
vn -0.5776 -0.5770 0.5774
vn 0.5771 -0.5777 0.5773
usemtl Material.001
s 1
f 5/1/1 4/2/2 1/3/3 2/4/4
f 2/4/4 1/3/3 3/5/5 8/6/6
f 1/3/3 4/2/2 6/7/7 3/8/5
f 7/9/8 6/10/7 4/2/2 5/1/1
f 8/6/6 3/5/5 6/11/7 7/12/8
f 5/1/1 2/4/4 8/13/6 7/14/8
