# Blender v3.0.0 OBJ File: 'Crate_LowPoly.blend'
# www.blender.org
mtllib Side_Piece-05.mtl
o Side_Piece-05
v -0.038827 -0.711172 -0.134469
v 0.038827 -0.711172 -0.134469
v -0.038827 0.711172 -0.134469
v -0.038827 -0.711172 0.134469
v 0.038827 -0.711172 0.134469
v -0.038827 0.711172 0.134469
v 0.038827 0.711172 0.134469
v 0.038827 0.711172 -0.134469
vt 0.488704 0.440769
vt 0.488704 0.262339
vt 0.499157 0.262339
vt 0.499157 0.440769
vt 0.535359 0.440769
vt 0.535359 0.450511
vt 0.499157 0.450511
vt 0.545812 0.440769
vt 0.545812 0.262339
vt 0.582013 0.262339
vt 0.582013 0.440769
vt 0.535359 0.262339
vt 0.499157 0.252598
vt 0.535359 0.252598
vn -0.5773 -0.5773 -0.5773
vn -0.5773 0.5773 -0.5773
vn 0.5773 0.5773 -0.5773
vn 0.5773 -0.5773 -0.5773
vn 0.5773 -0.5773 0.5773
vn -0.5773 -0.5773 0.5773
vn -0.5773 0.5773 0.5773
vn 0.5773 0.5773 0.5773
usemtl Material.001
s 1
f 1/1/1 3/2/2 8/3/3 2/4/4
f 2/4/4 5/5/5 4/6/6 1/7/1
f 4/8/6 6/9/7 3/10/2 1/11/1
f 5/5/5 7/12/8 6/9/7 4/8/6
f 7/12/8 8/3/3 3/13/2 6/14/7
f 2/4/4 8/3/3 7/12/8 5/5/5
