# Blender v3.0.0 OBJ File: 'Crate_LowPoly.blend'
# www.blender.org
mtllib Side_Trim-11.mtl
o Side_Trim-11
v -0.038827 -0.640646 0.071183
v -0.038827 0.640646 0.071183
v 0.038827 -0.640646 0.071183
v -0.038827 -0.640646 -0.071183
v -0.038827 0.640646 -0.071183
v 0.038827 -0.640646 -0.071183
v 0.038827 0.640646 -0.071183
v 0.038827 0.640646 0.071183
vt 0.901338 0.783788
vt 0.901338 0.623053
vt 0.920502 0.623053
vt 0.920502 0.783788
vt 0.930955 0.623053
vt 0.930955 0.783788
vt 0.901338 0.613311
vt 0.920502 0.613311
vt 0.890885 0.783788
vt 0.890885 0.623053
vt 0.871721 0.783788
vt 0.871722 0.623053
vt 0.920502 0.793529
vt 0.901338 0.793529
vn -0.5773 0.5773 -0.5773
vn -0.5773 -0.5773 -0.5773
vn -0.5773 -0.5773 0.5773
vn -0.5773 0.5773 0.5773
vn 0.5773 -0.5773 0.5773
vn 0.5773 0.5773 0.5773
vn 0.5773 -0.5773 -0.5773
vn 0.5773 0.5773 -0.5773
usemtl Material.001
s 1
f 5/1/1 4/2/2 1/3/3 2/4/4
f 2/4/4 1/3/3 3/5/5 8/6/6
f 1/3/3 4/2/2 6/7/7 3/8/5
f 7/9/8 6/10/7 4/2/2 5/1/1
f 8/11/6 3/12/5 6/10/7 7/9/8
f 5/1/1 2/4/4 8/13/6 7/14/8
