# Blender v3.0.0 OBJ File: 'Crate_LowPoly.blend'
# www.blender.org
mtllib Side_Piece-14.mtl
o Side_Piece-14
v -0.038827 -0.711172 -0.134469
v 0.038827 -0.711172 -0.134469
v -0.038827 0.711172 -0.134469
v -0.038827 -0.711172 0.134469
v 0.038827 -0.711172 0.134469
v -0.038827 0.711172 0.134469
v 0.038827 0.711172 0.134469
v 0.038827 0.711172 -0.134469
vt 0.741435 0.417838
vt 0.741435 0.239407
vt 0.751888 0.239407
vt 0.751888 0.417838
vt 0.741435 0.427579
vt 0.705234 0.427579
vt 0.705234 0.417838
vt 0.705234 0.239407
vt 0.694781 0.417838
vt 0.694781 0.239407
vt 0.705234 0.223493
vt 0.741435 0.229666
vt 0.788090 0.239407
vt 0.788089 0.417838
vn -0.5773 -0.5773 -0.5773
vn -0.5773 0.5773 -0.5773
vn 0.5773 0.5773 -0.5773
vn 0.5773 -0.5773 -0.5773
vn 0.5773 -0.5773 0.5773
vn -0.5773 -0.5773 0.5773
vn -0.5773 0.5773 0.5773
vn 0.5773 0.5773 0.5773
usemtl Material.001
s 1
f 1/1/1 3/2/2 8/3/3 2/4/4
f 2/5/4 5/6/5 4/7/6 1/1/1
f 4/7/6 6/8/7 3/2/2 1/1/1
f 5/9/5 7/10/8 6/8/7 4/7/6
f 7/11/8 8/12/3 3/2/2 6/8/7
f 2/4/4 8/3/3 7/13/8 5/14/5
