# Blender v3.0.0 OBJ File: 'Crate_LowPoly.blend'
# www.blender.org
mtllib Side_Trim-07.mtl
o Side_Trim-07
v 0.071183 -0.640646 0.038827
v 0.071183 0.640646 0.038827
v 0.071183 -0.640646 -0.038827
v -0.071183 -0.640646 0.038827
v -0.071183 0.640646 0.038827
v -0.071183 -0.640646 -0.038827
v -0.071183 0.640646 -0.038827
v 0.071183 0.640646 -0.038827
vt 0.647972 0.977989
vt 0.647973 0.817254
vt 0.667136 0.817254
vt 0.667136 0.977989
vt 0.677589 0.817254
vt 0.677589 0.977989
vt 0.647973 0.807512
vt 0.667136 0.807513
vt 0.637520 0.977989
vt 0.637520 0.817254
vt 0.618356 0.977989
vt 0.618356 0.817254
vt 0.667136 0.987731
vt 0.647972 0.987731
vn -0.5773 0.5773 0.5773
vn -0.5773 -0.5773 0.5773
vn 0.5773 -0.5773 0.5773
vn 0.5773 0.5773 0.5773
vn 0.5773 -0.5773 -0.5773
vn 0.5773 0.5773 -0.5773
vn -0.5773 -0.5773 -0.5773
vn -0.5773 0.5773 -0.5773
usemtl Material.001
s 1
f 5/1/1 4/2/2 1/3/3 2/4/4
f 2/4/4 1/3/3 3/5/5 8/6/6
f 1/3/3 4/2/2 6/7/7 3/8/5
f 7/9/8 6/10/7 4/2/2 5/1/1
f 8/11/6 3/12/5 6/10/7 7/9/8
f 5/1/1 2/4/4 8/13/6 7/14/8
