# Blender v3.0.0 OBJ File: 'Crate_LowPoly.blend'
# www.blender.org
mtllib Side_Trim-06.mtl
o Side_Trim-06
v 0.639332 0.070526 0.038827
v -0.639332 0.071840 0.038827
v 0.639332 0.070526 -0.038827
v 0.639332 -0.071840 0.038827
v -0.639332 -0.070526 0.038827
v 0.639332 -0.071840 -0.038827
v -0.639332 -0.070526 -0.038827
v -0.639332 0.071840 -0.038827
vt 0.040229 0.827984
vt 0.040229 0.988390
vt 0.021066 0.988372
vt 0.021065 0.827966
vt 0.010613 0.988372
vt 0.010613 0.827966
vt 0.040219 0.998132
vt 0.021055 0.998113
vt 0.050682 0.827984
vt 0.050682 0.988390
vt 0.069846 0.827966
vt 0.069846 0.988372
vt 0.021076 0.818224
vt 0.040240 0.818243
vn -0.5776 -0.5770 0.5774
vn 0.5771 -0.5777 0.5773
vn 0.5776 0.5770 0.5774
vn -0.5771 0.5777 0.5773
vn 0.5776 0.5770 -0.5774
vn -0.5771 0.5777 -0.5773
vn 0.5771 -0.5777 -0.5773
vn -0.5776 -0.5770 -0.5774
usemtl Material.001
s 1
f 5/1/1 4/2/2 1/3/3 2/4/4
f 2/4/4 1/3/3 3/5/5 8/6/6
f 1/3/3 4/2/2 6/7/7 3/8/5
f 7/9/8 6/10/7 4/2/2 5/1/1
f 8/11/6 3/12/5 6/10/7 7/9/8
f 5/1/1 2/4/4 8/13/6 7/14/8
