# Blender v3.0.0 OBJ File: 'Crate_LowPoly.blend'
# www.blender.org
mtllib Side_Piece-16.mtl
o Side_Piece-16
v -0.038827 -0.711172 -0.134469
v 0.038827 -0.711172 -0.134469
v -0.038827 0.711172 -0.134469
v -0.038827 -0.711172 0.134469
v 0.038827 -0.711172 0.134469
v -0.038827 0.711172 0.134469
v 0.038827 0.711172 0.134469
v 0.038827 0.711172 -0.134469
vt 0.571721 0.195411
vt 0.380260 0.195411
vt 0.380260 0.185669
vt 0.571721 0.185669
vt 0.582173 0.195411
vt 0.582174 0.229148
vt 0.571721 0.229148
vt 0.380260 0.229148
vt 0.571721 0.238890
vt 0.380260 0.238890
vt 0.369807 0.229148
vt 0.369807 0.195411
vt 0.380260 0.151931
vt 0.571721 0.151931
vn -0.5773 -0.5773 -0.5773
vn -0.5773 0.5773 -0.5773
vn 0.5773 0.5773 -0.5773
vn 0.5773 -0.5773 -0.5773
vn 0.5773 -0.5773 0.5773
vn -0.5773 -0.5773 0.5773
vn -0.5773 0.5773 0.5773
vn 0.5773 0.5773 0.5773
usemtl Material.001
s 1
f 1/1/1 3/2/2 8/3/3 2/4/4
f 2/5/4 5/6/5 4/7/6 1/1/1
f 4/7/6 6/8/7 3/2/2 1/1/1
f 5/9/5 7/10/8 6/8/7 4/7/6
f 7/11/8 8/12/3 3/2/2 6/8/7
f 2/4/4 8/3/3 7/13/8 5/14/5
