# Blender v3.0.0 OBJ File: 'Crate_LowPoly.blend'
# www.blender.org
mtllib Side_Trim-01.mtl
o Side_Trim-01
v 0.038827 -0.071183 0.639989
v 0.038827 -0.071183 -0.639989
v -0.038827 -0.071183 0.639989
v 0.038827 0.071183 0.639989
v 0.038827 0.071183 -0.639989
v -0.038827 0.071183 0.639989
v -0.038827 0.071183 -0.639989
v -0.038827 -0.071183 -0.639989
vt 0.805380 0.965158
vt 0.805380 0.804587
vt 0.824543 0.804587
vt 0.824543 0.965158
vt 0.834996 0.804587
vt 0.834997 0.965158
vt 0.805380 0.794845
vt 0.824543 0.794845
vt 0.794927 0.965158
vt 0.794927 0.804587
vt 0.854160 0.804587
vt 0.854160 0.965158
vt 0.824543 0.974899
vt 0.805380 0.974899
vn 0.5773 0.5773 -0.5773
vn 0.5773 0.5773 0.5773
vn 0.5773 -0.5773 0.5773
vn 0.5773 -0.5773 -0.5773
vn -0.5773 -0.5773 0.5773
vn -0.5773 -0.5773 -0.5773
vn -0.5773 0.5773 0.5773
vn -0.5773 0.5773 -0.5773
usemtl Material.001
s 1
f 5/1/1 4/2/2 1/3/3 2/4/4
f 2/4/4 1/3/3 3/5/5 8/6/6
f 1/3/3 4/2/2 6/7/7 3/8/5
f 7/9/8 6/10/7 4/2/2 5/1/1
f 8/6/6 3/5/5 6/11/7 7/12/8
f 5/1/1 2/4/4 8/13/6 7/14/8
