# Blender v3.0.0 OBJ File: 'Crate_LowPoly.blend'
# www.blender.org
mtllib Side_Piece-22.mtl
o Side_Piece-22
v -0.148673 -0.038827 -0.633517
v -0.148673 0.038827 -0.633517
v -0.148673 -0.038827 0.633517
v 0.148673 -0.038827 -0.633517
v 0.148673 0.038827 -0.633517
v 0.148673 -0.038827 0.633517
v 0.148673 0.038827 0.633517
v -0.148673 0.038827 0.633517
vt 0.996723 0.453725
vt 0.996723 0.612671
vt 0.989778 0.612671
vt 0.989778 0.453725
vt 0.963184 0.453725
vt 0.963184 0.443983
vt 0.989778 0.443983
vt 0.956238 0.453725
vt 0.956238 0.612671
vt 0.929644 0.612671
vt 0.929644 0.453725
vt 0.963184 0.612671
vt 0.989778 0.622413
vt 0.963184 0.622413
vn -0.5773 -0.5773 -0.5773
vn -0.5773 -0.5773 0.5773
vn -0.5773 0.5773 0.5773
vn -0.5773 0.5773 -0.5773
vn 0.5773 0.5773 -0.5773
vn 0.5773 -0.5773 -0.5773
vn 0.5773 -0.5773 0.5773
vn 0.5773 0.5773 0.5773
usemtl Material.001
s 1
f 1/1/1 3/2/2 8/3/3 2/4/4
f 2/4/4 5/5/5 4/6/6 1/7/1
f 4/8/6 6/9/7 3/10/2 1/11/1
f 5/5/5 7/12/8 6/9/7 4/8/6
f 7/12/8 8/3/3 3/13/2 6/14/7
f 2/4/4 8/3/3 7/12/8 5/5/5
