# Blender v3.0.0 OBJ File: 'Crate_LowPoly.blend'
# www.blender.org
mtllib Side_Piece-12.mtl
o Side_Piece-12
v -0.148673 0.672345 -0.038827
v -0.148673 0.672345 0.038827
v -0.148673 -0.672345 -0.038827
v 0.148673 0.672345 -0.038827
v 0.148673 0.672345 0.038827
v 0.148673 -0.672345 -0.038827
v 0.148673 -0.672345 0.038827
v -0.148673 -0.672345 0.038827
vt 0.598103 0.254289
vt 0.598103 0.422977
vt 0.587650 0.422977
vt 0.587650 0.254289
vt 0.598103 0.244547
vt 0.638129 0.244547
vt 0.638129 0.254289
vt 0.638128 0.422977
vt 0.648582 0.254289
vt 0.648581 0.422977
vt 0.638128 0.432719
vt 0.598103 0.432719
vt 0.688607 0.254289
vt 0.688607 0.422977
vn -0.5773 0.5773 -0.5773
vn -0.5773 -0.5773 -0.5773
vn -0.5773 -0.5773 0.5773
vn -0.5773 0.5773 0.5773
vn 0.5773 0.5773 0.5773
vn 0.5773 0.5773 -0.5773
vn 0.5773 -0.5773 -0.5773
vn 0.5773 -0.5773 0.5773
usemtl Material.001
s 1
f 1/1/1 3/2/2 8/3/3 2/4/4
f 2/5/4 5/6/5 4/7/6 1/1/1
f 4/7/6 6/8/7 3/2/2 1/1/1
f 5/9/5 7/10/8 6/8/7 4/7/6
f 7/11/8 8/12/3 3/2/2 6/8/7
f 2/13/4 8/14/3 7/10/8 5/9/5
