# Blender v3.0.0 OBJ File: 'Crate_LowPoly.blend'
# www.blender.org
mtllib Side_Piece-09.mtl
o Side_Piece-09
v -0.038827 -0.711172 -0.134469
v 0.038827 -0.711172 -0.134469
v -0.038827 0.711172 -0.134469
v -0.038827 -0.711172 0.134469
v 0.038827 -0.711172 0.134469
v -0.038827 0.711172 0.134469
v 0.038827 0.711172 0.134469
v 0.038827 0.711172 -0.134469
vt 0.670540 0.446338
vt 0.670540 0.624768
vt 0.660087 0.624768
vt 0.660087 0.446338
vt 0.623886 0.446338
vt 0.623886 0.436596
vt 0.660087 0.436596
vt 0.706742 0.446338
vt 0.706742 0.624768
vt 0.623886 0.624768
vt 0.613433 0.624768
vt 0.613433 0.446338
vt 0.660087 0.634510
vt 0.623886 0.634510
vn -0.5773 -0.5773 -0.5773
vn -0.5773 0.5773 -0.5773
vn 0.5773 0.5773 -0.5773
vn 0.5773 -0.5773 -0.5773
vn 0.5773 -0.5773 0.5773
vn -0.5773 -0.5773 0.5773
vn -0.5773 0.5773 0.5773
vn 0.5773 0.5773 0.5773
usemtl Material.001
s 1
f 1/1/1 3/2/2 8/3/3 2/4/4
f 2/4/4 5/5/5 4/6/6 1/7/1
f 4/8/6 6/9/7 3/2/2 1/1/1
f 5/5/5 7/10/8 6/11/7 4/12/6
f 7/10/8 8/3/3 3/13/2 6/14/7
f 2/4/4 8/3/3 7/10/8 5/5/5
