# Blender v3.0.0 OBJ File: 'Crate_LowPoly.blend'
# www.blender.org
mtllib Side_Trim-08.mtl
o Side_Trim-08
v -0.639989 -0.070526 0.038827
v 0.639989 -0.071840 0.038827
v -0.639989 -0.070526 -0.038827
v -0.639989 0.071840 0.038827
v 0.639989 0.070526 0.038827
v -0.639989 0.071840 -0.038827
v 0.639989 0.070526 -0.038827
v 0.639989 -0.071840 -0.038827
vt 0.280729 0.974305
vt 0.280729 0.813735
vt 0.299893 0.813754
vt 0.299893 0.974324
vt 0.310346 0.813754
vt 0.310346 0.974324
vt 0.280740 0.803994
vt 0.299903 0.804012
vt 0.270276 0.974305
vt 0.270276 0.813735
vt 0.329509 0.813735
vt 0.329510 0.974305
vt 0.299882 0.984065
vt 0.280719 0.984047
vn 0.5776 0.5770 0.5774
vn -0.5771 0.5777 0.5773
vn -0.5776 -0.5770 0.5774
vn 0.5771 -0.5777 0.5773
vn -0.5776 -0.5770 -0.5774
vn 0.5771 -0.5777 -0.5773
vn -0.5771 0.5777 -0.5773
vn 0.5776 0.5770 -0.5774
usemtl Material.001
s 1
f 5/1/1 4/2/2 1/3/3 2/4/4
f 2/4/4 1/3/3 3/5/5 8/6/6
f 1/3/3 4/2/2 6/7/7 3/8/5
f 7/9/8 6/10/7 4/2/2 5/1/1
f 8/6/6 3/5/5 6/11/7 7/12/8
f 5/1/1 2/4/4 8/13/6 7/14/8
