# Blender v3.0.0 OBJ File: 'Crate_LowPoly.blend'
# www.blender.org
mtllib Top_Trim-03.mtl
o Top_Trim-03
v 0.071183 0.038827 0.678816
v 0.071183 0.038827 -0.678816
v 0.071183 -0.038827 0.678816
v -0.071183 0.038827 0.678816
v -0.071183 0.038827 -0.678816
v -0.071183 -0.038827 0.678816
v -0.071183 -0.038827 -0.678816
v 0.071183 -0.038827 -0.678816
vt 0.545747 0.032925
vt 0.362999 0.032924
vt 0.362999 0.015065
vt 0.545747 0.015065
vt 0.362999 0.005323
vt 0.545747 0.005323
vt 0.352546 0.032924
vt 0.352546 0.015065
vt 0.545747 0.042666
vt 0.362999 0.042666
vt 0.545748 0.060525
vt 0.362999 0.060525
vt 0.556200 0.015065
vt 0.556200 0.032925
vn -0.5773 0.5773 -0.5773
vn -0.5773 0.5773 0.5773
vn 0.5773 0.5773 0.5773
vn 0.5773 0.5773 -0.5773
vn 0.5773 -0.5773 0.5773
vn 0.5773 -0.5773 -0.5773
vn -0.5773 -0.5773 0.5773
vn -0.5773 -0.5773 -0.5773
usemtl Material.001
s 1
f 5/1/1 4/2/2 1/3/3 2/4/4
f 2/4/4 1/3/3 3/5/5 8/6/6
f 1/3/3 4/2/2 6/7/7 3/8/5
f 7/9/8 6/10/7 4/2/2 5/1/1
f 8/11/6 3/12/5 6/10/7 7/9/8
f 5/1/1 2/4/4 8/13/6 7/14/8
