# Blender v3.0.0 OBJ File: 'Crate_LowPoly.blend'
# www.blender.org
mtllib Top_Trim-01.mtl
o Top_Trim-01
v -0.071183 0.038827 -0.678816
v -0.071183 0.038827 0.678816
v -0.071183 -0.038827 -0.678816
v 0.071183 0.038827 -0.678816
v 0.071183 0.038827 0.678816
v 0.071183 -0.038827 -0.678816
v 0.071183 -0.038827 0.678816
v -0.071183 -0.038827 0.678816
vt 0.828891 0.430993
vt 0.828891 0.601305
vt 0.809728 0.601305
vt 0.809727 0.430993
vt 0.799274 0.601305
vt 0.799274 0.430993
vt 0.828891 0.611046
vt 0.809728 0.611047
vt 0.839344 0.430993
vt 0.839344 0.601305
vt 0.858508 0.430993
vt 0.858508 0.601305
vt 0.809727 0.421251
vt 0.828891 0.421251
vn 0.5773 0.5773 0.5773
vn 0.5773 0.5773 -0.5773
vn -0.5773 0.5773 -0.5773
vn -0.5773 0.5773 0.5773
vn -0.5773 -0.5773 -0.5773
vn -0.5773 -0.5773 0.5773
vn 0.5773 -0.5773 -0.5773
vn 0.5773 -0.5773 0.5773
usemtl Material.001
s 1
f 5/1/1 4/2/2 1/3/3 2/4/4
f 2/4/4 1/3/3 3/5/5 8/6/6
f 1/3/3 4/2/2 6/7/7 3/8/5
f 7/9/8 6/10/7 4/2/2 5/1/1
f 8/11/6 3/12/5 6/10/7 7/9/8
f 5/1/1 2/4/4 8/13/6 7/14/8
